<svg width="500" height="500" viewBox="0 0 500 500" fill="none" xmlns="http://www.w3.org/2000/svg">
<g clip-path="url(#clip0_1165_1269)">
<path d="M250.006 499.393C111.938 499.393 0.011261 434.773 0.011261 355.059C0.011261 275.346 111.938 210.726 250.006 210.726C388.074 210.726 500 275.346 500 355.059C500 434.773 388.074 499.393 250.006 499.393Z" fill="#F5F5F5"/>
<path d="M423.508 383.688C408.224 383.688 395.835 376.535 395.835 367.711C395.835 358.887 408.224 351.734 423.508 351.734C438.792 351.734 451.182 358.887 451.182 367.711C451.182 376.535 438.792 383.688 423.508 383.688Z" fill="#E6E6E6"/>
<path d="M210.389 282.072L392.273 387.081C395.284 388.823 395.284 393.171 392.273 394.912L285.376 456.63C279.905 459.787 273.174 459.787 267.703 456.63L85.8191 351.621C82.8079 349.88 82.8079 345.532 85.8191 343.79L192.716 282.072C198.187 278.915 204.929 278.915 210.389 282.072Z" fill="#E6E6E6"/>
<path d="M264.995 283.095L337.814 325.139C344.218 328.835 344.218 338.082 337.814 341.79L301.141 362.958C296.208 365.812 290.118 365.812 285.186 362.958L212.367 320.914C205.963 317.218 205.963 307.971 212.367 304.263L249.041 283.095C253.973 280.241 260.052 280.241 264.995 283.095Z" fill="#E6E6E6"/>
<path d="M422.046 326.363C422.046 326.363 439.146 309.667 429.416 281.69C423.967 266.016 405.889 254.5 395.597 253.421C395.597 253.421 401.181 259.859 403.642 266.983L416.608 275.601L404.686 271.87L407.226 282.072C407.226 282.072 418.304 288.769 419.956 290.241L408.012 287.117C408.012 287.117 408.922 315.993 422.057 326.375L422.046 326.363Z" fill="#78CA32"/>
<path opacity="0.4" d="M422.046 326.363C422.046 326.363 439.146 309.667 429.416 281.69C423.967 266.016 405.889 254.5 395.597 253.421C395.597 253.421 401.181 259.859 403.642 266.983L416.608 275.601L404.686 271.87L407.226 282.072C407.226 282.072 418.304 288.769 419.956 290.241L408.012 287.117C408.012 287.117 408.922 315.993 422.057 326.375L422.046 326.363Z" fill="black"/>
<path d="M422.046 326.363C422.046 326.363 430.9 291.42 417.799 271.039C417.799 271.039 433.158 289.027 422.046 326.363Z" fill="white"/>
<path d="M402.474 331.094L423.395 330.835H423.507H423.619L444.54 331.094C444.54 331.094 444.776 356.868 436.833 367.363C434.642 370.149 429.496 372.104 423.507 372.104C417.518 372.104 412.361 370.138 410.17 367.34C402.238 356.846 402.474 331.094 402.474 331.094Z" fill="#37474F"/>
<path d="M423.508 342.386C411.891 342.386 402.475 337.33 402.475 331.094C402.475 324.857 411.891 319.802 423.508 319.802C435.124 319.802 444.541 324.857 444.541 331.094C444.541 337.33 435.124 342.386 423.508 342.386Z" fill="#455A64"/>
<path d="M423.508 328.105C416.272 328.105 410.148 330.431 407.98 333.644C407.44 332.846 407.137 331.993 407.137 331.105C407.137 326.644 414.463 323.026 423.496 323.026C432.53 323.026 439.855 326.644 439.855 331.105C439.855 331.993 439.552 332.846 439.013 333.644C436.856 330.431 430.732 328.105 423.496 328.105H423.508Z" fill="#263238"/>
<path d="M423.507 328.105C430.743 328.105 436.866 330.431 439.023 333.644C436.866 336.858 430.743 339.183 423.507 339.183C416.271 339.183 410.148 336.858 407.979 333.644C410.136 330.431 416.26 328.105 423.507 328.105Z" fill="#E0E0E0"/>
<path d="M423.248 335.037C423.248 335.037 431.349 334.723 438.304 323.959C441.169 319.521 442.551 317.184 442.551 317.184L431.26 316.341L443.911 313.184L449.888 304.038L439.383 303.263C439.383 303.263 447.203 300.521 452.798 300.488C452.798 300.488 462.484 283.376 465.326 280.937C465.326 280.937 442.978 281.117 427.057 299.96C411.125 318.791 420.9 335.532 423.26 335.06L423.248 335.037Z" fill="#78CA32"/>
<path d="M423.249 335.037C423.249 335.037 418.182 304.499 450.529 286.14C450.529 286.14 416.957 302.263 423.249 335.037Z" fill="white"/>
<path d="M423.248 335.037C423.248 335.037 415.911 335.521 408.619 326.465C405.619 322.734 404.147 320.757 404.147 320.757L414.26 318.937L402.552 317.274L396.294 309.589L405.698 307.892C405.698 307.892 398.383 306.15 393.339 306.645C393.339 306.645 382.991 292.117 380.204 290.184C380.204 290.184 400.383 288.252 416.529 303.735C432.675 319.229 425.439 335.251 423.259 335.037H423.248Z" fill="#78CA32"/>
<path opacity="0.2" d="M423.248 335.037C423.248 335.037 415.911 335.521 408.619 326.465C405.619 322.734 404.147 320.757 404.147 320.757L414.26 318.937L402.552 317.274L396.294 309.589L405.698 307.892C405.698 307.892 398.383 306.15 393.339 306.645C393.339 306.645 382.991 292.117 380.204 290.184C380.204 290.184 400.383 288.252 416.529 303.735C432.675 319.229 425.439 335.251 423.259 335.037H423.248Z" fill="black"/>
<path d="M423.248 335.037C423.248 335.037 424.944 307.016 394.035 293.488C394.035 293.488 425.843 304.881 423.248 335.037Z" fill="white"/>
<path d="M386.059 86.4138V142.233L434.395 170.142V114.323L386.059 86.4138Z" fill="#FAFAFA"/>
<path d="M391.294 89.4362V139.21L434.405 164.097V114.323L391.294 89.4362ZM388.676 84.9082L437.012 112.818V168.637L434.394 170.142L386.058 142.233V86.4138L388.676 84.9082Z" fill="#E0E0E0"/>
<path d="M388.676 90.953V140.727L431.788 165.614V115.84L388.676 90.953ZM386.059 86.425L434.395 114.335V170.153L386.059 142.244V86.425Z" fill="#EBEBEB"/>
<path d="M393.16 129.469L429.721 150.581L418.923 122.469L411.44 131.357L403.789 120.458L393.16 129.469Z" fill="#E0E0E0"/>
<path d="M405.846 111.93C405.846 114.054 407.34 116.649 409.183 117.705C411.025 118.773 412.52 117.907 412.52 115.784C412.52 113.66 411.025 111.065 409.183 110.009C407.34 108.941 405.846 109.807 405.846 111.93Z" fill="#E0E0E0"/>
<path d="M369.935 16.921V61.3919L408.439 83.6273V39.1564L369.935 16.921Z" fill="#FAFAFA"/>
<path d="M374.103 19.3254V58.9762L408.439 78.8072V39.1564L374.103 19.3254ZM372.013 15.7188L410.529 37.9542V82.4251L408.439 83.6273L369.935 61.3919V16.921L372.025 15.7188H372.013Z" fill="#E0E0E0"/>
<path d="M372.013 20.5389V60.1896L406.349 80.0207V40.3699L372.013 20.5389ZM369.923 16.9322L408.428 39.1676V83.6386L369.923 61.4031V16.921V16.9322Z" fill="#EBEBEB"/>
<path d="M375.587 51.2236L404.721 68.0434L396.114 45.6394L390.148 52.7179L384.058 44.0439L375.587 51.2236Z" fill="#E0E0E0"/>
<path d="M385.688 37.2464C385.688 38.943 386.879 40.9991 388.351 41.853C389.823 42.6957 391.014 42.0103 391.014 40.3137C391.014 38.6171 389.823 36.561 388.351 35.7071C386.879 34.8644 385.688 35.5498 385.688 37.2464Z" fill="#E0E0E0"/>
<path d="M288.028 273.971L272.399 369.351C272.163 370.789 270.916 371.846 269.466 371.846C267.691 371.846 266.309 370.306 266.511 368.542L277.477 270.14L288.039 273.971H288.028Z" fill="#263238"/>
<path d="M234.075 241.893L218.446 337.273C218.21 338.711 216.963 339.768 215.513 339.768C213.738 339.768 212.356 338.228 212.558 336.464L223.524 238.062L234.086 241.893H234.075Z" fill="#263238"/>
<path d="M312.028 251.668L327.455 333.858C327.669 335.049 328.702 335.903 329.916 335.903C331.433 335.903 332.612 334.543 332.399 333.037L321.006 256.859L312.028 251.668Z" fill="#263238"/>
<path d="M257.468 221.006L272.805 302.69C273.018 303.881 274.052 304.735 275.265 304.735C276.782 304.735 277.962 303.375 277.748 301.87L266.445 226.186L257.468 221.006Z" fill="#263238"/>
<path d="M261.917 214.793C269.119 211.579 274.051 204.793 274.827 196.951C277.31 171.929 286.13 120.346 315.994 137.514C352.859 158.704 339.657 220.242 334.297 239.972C333.084 244.421 330.769 248.478 327.522 251.758C320.859 258.466 307.073 270.016 283.624 279.859C280.748 281.061 277.546 281.252 274.546 280.398C262.894 277.084 232.457 266.882 217.277 247.478C215.48 245.185 215.873 241.871 218.154 240.062C224.3 235.174 238.187 225.354 261.917 214.782V214.793Z" fill="#EC6100"/>
<path opacity="0.5" d="M261.917 214.793C269.119 211.579 274.051 204.793 274.827 196.951C277.31 171.929 286.13 120.346 315.994 137.514C352.859 158.704 339.657 220.242 334.297 239.972C333.084 244.421 330.769 248.478 327.522 251.758C320.859 258.466 307.073 270.016 283.624 279.859C280.748 281.061 277.546 281.252 274.546 280.398C262.894 277.084 232.457 266.882 217.277 247.478C215.48 245.185 215.873 241.871 218.154 240.062C224.3 235.174 238.187 225.354 261.917 214.782V214.793Z" fill="black"/>
<path d="M216.176 243.961C216.108 245.197 216.457 246.444 217.277 247.489C218.086 248.522 218.951 249.534 219.839 250.511C220.322 251.051 220.827 251.579 221.333 252.107C221.333 252.107 221.355 252.129 221.367 252.14C221.872 252.657 222.389 253.163 222.906 253.668C222.917 253.68 222.94 253.702 222.951 253.713C223.479 254.219 224.007 254.702 224.558 255.196C224.569 255.208 224.58 255.219 224.603 255.23C225.153 255.725 225.704 256.196 226.265 256.68C226.265 256.68 226.277 256.691 226.288 256.702C234.895 263.927 245.344 269.432 254.681 273.398C254.692 273.398 254.703 273.398 254.714 273.41C255.299 273.657 255.872 273.893 256.445 274.129C256.501 274.151 256.568 274.174 256.624 274.207C257.164 274.432 257.692 274.645 258.22 274.848C258.31 274.881 258.4 274.926 258.501 274.96C258.995 275.162 259.489 275.353 259.984 275.544C260.096 275.589 260.209 275.634 260.321 275.679C260.793 275.859 261.253 276.027 261.703 276.207C261.838 276.252 261.973 276.308 262.107 276.353C262.534 276.511 262.961 276.668 263.388 276.825C263.546 276.881 263.692 276.938 263.849 276.994C264.242 277.14 264.635 277.275 265.029 277.409C265.197 277.466 265.355 277.522 265.523 277.578C265.894 277.702 266.253 277.836 266.613 277.949C266.793 278.005 266.961 278.061 267.13 278.129C267.467 278.241 267.793 278.353 268.118 278.454C268.309 278.522 268.489 278.578 268.68 278.634C268.984 278.735 269.276 278.825 269.568 278.915C269.77 278.982 269.972 279.039 270.163 279.106C270.422 279.185 270.68 279.275 270.927 279.353C271.152 279.421 271.354 279.488 271.579 279.555C271.793 279.623 272.017 279.69 272.231 279.758C272.5 279.836 272.759 279.915 273.017 279.994C273.152 280.027 273.287 280.072 273.422 280.117C273.815 280.23 274.186 280.342 274.545 280.443C277.545 281.297 280.747 281.106 283.624 279.904C307.073 270.061 320.87 258.511 327.522 251.803C330.769 248.534 333.083 244.466 334.297 240.017C339.656 220.287 352.858 158.749 315.994 137.559C315.342 137.188 314.702 136.851 314.061 136.536C313.926 136.469 313.78 136.401 313.646 136.334C313.028 136.042 312.41 135.772 311.803 135.536C311.747 135.514 311.691 135.491 311.623 135.469C311.039 135.255 310.477 135.064 309.915 134.896C309.825 134.873 309.747 134.84 309.657 134.817C309.05 134.649 308.455 134.514 307.87 134.401C307.825 134.401 307.769 134.39 307.724 134.379C306.5 134.166 305.331 134.087 304.185 134.132C304.163 134.132 304.14 134.132 304.118 134.132C302.96 134.177 301.837 134.357 300.769 134.649C306.657 132.042 313.848 132.166 320.982 136.267C357.847 157.457 344.645 218.995 339.285 238.725L338.375 242.118C336.544 248.961 332.499 255.017 326.87 259.32L317.308 266.634C309.567 272.589 298.578 279.533 283.657 285.791C280.77 287.005 277.556 287.207 274.545 286.353C262.905 283.039 232.445 272.848 217.266 253.432C216.592 252.567 216.243 251.556 216.176 250.545H216.153V243.972H216.165L216.176 243.961Z" fill="#EC6100"/>
<path opacity="0.6" d="M216.176 243.961C216.108 245.197 216.457 246.444 217.277 247.489C218.086 248.522 218.951 249.534 219.839 250.511C220.322 251.051 220.827 251.579 221.333 252.107C221.333 252.107 221.355 252.129 221.367 252.14C221.872 252.657 222.389 253.163 222.906 253.668C222.917 253.68 222.94 253.702 222.951 253.713C223.479 254.219 224.007 254.702 224.558 255.196C224.569 255.208 224.58 255.219 224.603 255.23C225.153 255.725 225.704 256.196 226.265 256.68C226.265 256.68 226.277 256.691 226.288 256.702C234.895 263.927 245.344 269.432 254.681 273.398C254.692 273.398 254.703 273.398 254.714 273.41C255.299 273.657 255.872 273.893 256.445 274.129C256.501 274.151 256.568 274.174 256.624 274.207C257.164 274.432 257.692 274.645 258.22 274.848C258.31 274.881 258.4 274.926 258.501 274.96C258.995 275.162 259.489 275.353 259.984 275.544C260.096 275.589 260.209 275.634 260.321 275.679C260.793 275.859 261.253 276.027 261.703 276.207C261.838 276.252 261.973 276.308 262.107 276.353C262.534 276.511 262.961 276.668 263.388 276.825C263.546 276.881 263.692 276.938 263.849 276.994C264.242 277.14 264.635 277.275 265.029 277.409C265.197 277.466 265.355 277.522 265.523 277.578C265.894 277.702 266.253 277.836 266.613 277.949C266.793 278.005 266.961 278.061 267.13 278.129C267.467 278.241 267.793 278.353 268.118 278.454C268.309 278.522 268.489 278.578 268.68 278.634C268.984 278.735 269.276 278.825 269.568 278.915C269.77 278.982 269.972 279.039 270.163 279.106C270.422 279.185 270.68 279.275 270.927 279.353C271.152 279.421 271.354 279.488 271.579 279.555C271.793 279.623 272.017 279.69 272.231 279.758C272.5 279.836 272.759 279.915 273.017 279.994C273.152 280.027 273.287 280.072 273.422 280.117C273.815 280.23 274.186 280.342 274.545 280.443C277.545 281.297 280.747 281.106 283.624 279.904C307.073 270.061 320.87 258.511 327.522 251.803C330.769 248.534 333.083 244.466 334.297 240.017C339.656 220.287 352.858 158.749 315.994 137.559C315.342 137.188 314.702 136.851 314.061 136.536C313.926 136.469 313.78 136.401 313.646 136.334C313.028 136.042 312.41 135.772 311.803 135.536C311.747 135.514 311.691 135.491 311.623 135.469C311.039 135.255 310.477 135.064 309.915 134.896C309.825 134.873 309.747 134.84 309.657 134.817C309.05 134.649 308.455 134.514 307.87 134.401C307.825 134.401 307.769 134.39 307.724 134.379C306.5 134.166 305.331 134.087 304.185 134.132C304.163 134.132 304.14 134.132 304.118 134.132C302.96 134.177 301.837 134.357 300.769 134.649C306.657 132.042 313.848 132.166 320.982 136.267C357.847 157.457 344.645 218.995 339.285 238.725L338.375 242.118C336.544 248.961 332.499 255.017 326.87 259.32L317.308 266.634C309.567 272.589 298.578 279.533 283.657 285.791C280.77 287.005 277.556 287.207 274.545 286.353C262.905 283.039 232.445 272.848 217.266 253.432C216.592 252.567 216.243 251.556 216.176 250.545H216.153V243.972H216.165L216.176 243.961Z" fill="black"/>
<path d="M195.828 314.364C198.356 298.319 201.569 272.657 203.423 257.477C203.547 256.477 203.715 255.489 203.929 254.522C205.783 246.051 211.333 238.849 218.782 234.41L256.602 211.894L282.275 198.389C282.275 198.389 289.107 218.186 281.174 230.287C274.568 240.365 245.4 252.859 236.737 257.062C228.074 261.264 227.883 262.41 228.063 268.039C228.243 273.668 228.254 280.836 217.591 303.285C214.535 309.735 212.401 314.566 210.906 318.263C207.198 318.588 201.682 318.128 195.85 314.352L195.828 314.364Z" fill="#EC6100"/>
<path opacity="0.7" d="M195.827 314.364C198.355 298.319 201.569 272.657 203.423 257.477C203.602 255.983 203.895 254.511 204.277 253.073C206.378 245.219 211.726 238.613 218.714 234.455L256.59 211.905L282.264 198.4C282.264 198.4 289.095 218.197 281.163 230.298C274.556 240.377 245.388 252.871 236.725 257.073C228.063 261.275 227.872 262.421 228.051 268.05C228.231 273.679 228.242 280.848 217.58 303.297C214.524 309.746 212.389 314.577 210.894 318.274C207.187 318.6 201.67 318.139 195.839 314.364H195.827Z" fill="black"/>
<path d="M207.523 331.363C207.535 332.037 207.389 332.689 207.063 333.273C206.355 334.565 204.748 337.004 201.377 340.037C196.288 344.633 179.4 362.61 173.457 351.453C173.457 351.453 190.906 334.745 193.22 327.869C193.872 325.914 194.793 320.937 195.827 314.352C201.658 318.128 207.175 318.588 210.883 318.262C207.613 326.386 207.467 329.038 207.523 331.352V331.363Z" fill="#FFA8A7"/>
<path d="M189.38 330.273L189.863 328.824C190.234 327.701 191.447 327.083 192.582 327.431L199.649 329.611C200.559 329.891 201.177 330.734 201.177 331.689V332.397C201.177 333.094 201.739 333.655 202.436 333.655C203.93 333.655 205.379 333.139 206.537 332.184L207.525 331.375V328.903C208.829 329.745 209.582 331.217 209.492 332.768C209.402 334.442 209.323 336.487 209.379 337.307C209.492 338.779 210.885 344.97 209.233 346.79C207.582 348.621 203.874 348.835 199.29 348.34C194.705 347.846 189.694 352.363 185.436 354.026C181.189 355.7 163.594 359.295 163.639 348.048C163.639 345.183 166.481 344.015 169.268 343.004C172.054 341.992 182.088 338.453 184.661 336.33C185.84 335.352 186.818 334.33 187.526 333.498C188.346 332.554 188.953 331.464 189.357 330.273H189.38Z" fill="#455A64"/>
<path d="M185.458 354.026C189.705 352.352 194.728 347.846 199.312 348.34C203.896 348.835 207.593 348.621 209.255 346.79C209.75 346.239 209.974 345.296 210.042 344.194C210.132 345.925 209.997 347.588 209.255 348.397C207.604 350.228 203.896 350.442 199.312 349.947C194.728 349.453 189.717 353.97 185.458 355.632C181.211 357.307 163.616 360.902 163.661 349.655C163.661 349.475 163.706 349.329 163.728 349.172C164.841 359.048 181.357 355.632 185.458 354.026Z" fill="#263238"/>
<path d="M230.187 333.858C232.715 317.813 235.929 292.151 237.783 276.971C238.749 268.994 242.693 261.68 248.816 256.477L294.197 217.894L318.455 217.478C318.455 217.478 323.455 237.691 315.522 249.803C308.916 259.882 279.748 272.376 271.085 276.578C262.423 280.78 262.231 281.926 262.411 287.555C262.591 293.184 262.602 300.353 251.94 322.802C248.883 329.251 246.749 334.082 245.254 337.779C241.547 338.105 236.03 337.644 230.199 333.869L230.187 333.858Z" fill="#EC6100"/>
<path opacity="0.7" d="M230.187 333.858C232.715 317.813 235.929 292.151 237.783 276.971C238.749 268.994 242.693 261.68 248.816 256.477L294.197 217.894L318.455 217.478C318.455 217.478 323.455 237.691 315.522 249.803C308.916 259.882 279.748 272.376 271.085 276.578C262.423 280.78 262.231 281.926 262.411 287.555C262.591 293.184 262.602 300.353 251.94 322.802C248.883 329.251 246.749 334.082 245.254 337.779C241.547 338.105 236.03 337.644 230.199 333.869L230.187 333.858Z" fill="black"/>
<path d="M241.894 349.408C241.905 350.082 242.355 352.071 241.422 352.767C240.242 353.644 239.108 356.498 235.737 359.531C230.647 364.127 225.265 354.239 227.58 347.363C228.231 345.408 229.153 340.431 230.186 333.846C236.018 337.622 241.534 338.082 245.242 337.756C241.973 345.88 241.838 347.093 241.894 349.397V349.408Z" fill="#FFA8A7"/>
<path d="M271.893 133.75C264.724 132.626 257.747 136.817 255.477 143.705C254.106 147.839 252.882 152.895 252.41 158.547C251.095 174.108 250.736 181.895 250.736 181.895L235.107 188.985C235.107 188.985 243.545 189.389 242.972 201.31L262.443 196.4L271.893 133.75Z" fill="#FFA8A7"/>
<path d="M250.151 172.49C252.454 155.626 253.364 146.817 255.342 142.637C258.443 136.076 264.712 132.637 271.881 133.761L265.993 180.052L265.241 179.973C260.027 179.468 255.117 177.288 251.23 173.783L250.151 172.502V172.49Z" fill="#EC6100"/>
<path opacity="0.2" d="M250.151 172.49C252.454 155.626 253.364 146.817 255.342 142.637C258.443 136.076 264.712 132.637 271.881 133.761L265.993 180.052L265.241 179.973C260.027 179.468 255.117 177.288 251.23 173.783L250.151 172.502V172.49Z" fill="black"/>
<path d="M250.736 181.895C250.736 181.895 253.713 182.771 255.354 184.726C255.354 184.726 253.466 181.142 250.826 180.041L250.736 181.895Z" fill="#F28F8F"/>
<path d="M309.442 147.39L291.96 138.918L277.556 133.941C277.556 133.941 266.016 130.255 263.062 145.637C260.635 158.277 260.32 206.321 260.32 206.321L260.578 211.579C260.578 211.579 267.241 230.253 291.05 231.793C314.858 233.332 319.487 223.298 319.487 223.298C319.487 223.298 321.903 159.738 309.442 147.379V147.39Z" fill="#EC6100"/>
<path d="M254.355 96.0428C254.355 96.0428 248.951 109.896 256.412 115.997C263.872 122.098 261.288 97.5933 261.288 97.5933L254.355 96.054V96.0428Z" fill="#263238"/>
<path d="M267.511 452.72C269.207 453.698 271.949 453.698 273.646 452.72C275.342 451.743 275.342 450.158 273.646 449.181C271.949 448.203 269.207 448.203 267.511 449.181C265.814 450.158 265.814 451.743 267.511 452.72Z" fill="#455A64"/>
<path d="M266.242 346.408H274.916V450.855H266.242V346.408Z" fill="#37474F"/>
<path d="M369.251 395.519C366.856 395.519 364.914 394.397 364.914 393.014C364.914 391.63 366.856 390.508 369.251 390.508C371.646 390.508 373.588 391.63 373.588 393.014C373.588 394.397 371.646 395.519 369.251 395.519Z" fill="#455A64"/>
<path d="M364.902 288.465H373.576V392.913H364.902V288.465Z" fill="#263238"/>
<path d="M105.775 359.014C107.471 359.992 110.213 359.992 111.909 359.014C113.606 358.037 113.606 356.453 111.909 355.475C110.213 354.498 107.471 354.498 105.775 355.475C104.078 356.453 104.078 358.037 105.775 359.014Z" fill="#455A64"/>
<path d="M104.506 252.691H113.18V357.138H104.506V252.691Z" fill="#37474F"/>
<path d="M211.849 279.971C213.366 280.848 215.838 280.848 217.355 279.971C218.871 279.095 218.871 277.668 217.355 276.792C215.838 275.915 213.366 275.915 211.849 276.792C210.332 277.668 210.332 279.095 211.849 279.971Z" fill="#455A64"/>
<path d="M210.692 191.131H218.479V278.297H210.692V191.131Z" fill="#455A64"/>
<path d="M373.588 271.162V291.948L270.568 351.419V330.644L373.588 271.162Z" fill="#263238"/>
<path d="M104.493 234.759L270.568 330.644V351.419L104.493 255.545V234.759Z" fill="#37474F"/>
<path d="M207.513 175.288L373.588 271.162L270.568 330.644L104.493 234.759L207.513 175.288Z" fill="#455A64"/>
<path d="M290.838 239.983L253.063 261.792L190.256 225.478L228.03 203.22L290.838 239.983Z" fill="#EBEBEB"/>
<path d="M257.13 233.781L242.95 225.602L251.838 220.467L266.006 228.658L257.13 233.781Z" fill="#E0E0E0"/>
<path d="M251.455 256.343L270.545 245.107L233.231 222.534L251.455 256.343Z" fill="#E0E0E0"/>
<path d="M240.771 186.288L225.659 193.378C219.603 194.793 212.311 197.501 212.311 197.501C212.311 197.501 201.794 201.793 201.322 204.613C200.839 207.434 209.21 214.22 216.569 210.917C218.052 210.254 220.726 208.905 222.704 208.692C224.681 208.478 230.535 207.557 234.782 203.512L252.422 198.928C252.422 198.928 253.299 188.041 240.782 186.288H240.771Z" fill="#FFA8A7"/>
<path d="M230.985 207.366C229.232 209.242 224.243 213.973 223.153 215.332C222.063 216.703 219.49 213.186 224.007 207.95C224.007 207.95 230.007 205.872 234.895 202.018C234.895 202.018 232.737 205.49 230.985 207.355V207.366Z" fill="#FFA8A7"/>
<path d="M274.027 117.222H291.959V138.929H274.027V117.222Z" fill="#FFA8A7"/>
<path d="M274.017 138.929C280.354 136.48 286.983 131.57 290.5 123.256V117.222H274.017V138.929Z" fill="#F28F8F"/>
<path d="M267.982 88.5598C267.982 88.5598 251.668 90.5261 255.409 118.391C257.139 131.278 260.589 137.795 270.521 136.694C281.779 135.446 297.341 126.694 294.925 104.616C292.509 82.5262 267.982 88.5598 267.982 88.5598Z" fill="#FFA8A7"/>
<path d="M267.061 113.413L267.656 123.042L261.915 121.649L267.061 113.413Z" fill="#F28F8F"/>
<path d="M275.613 112.548C275.681 113.627 274.861 114.559 273.771 114.627C272.692 114.694 271.759 113.874 271.692 112.784C271.625 111.705 272.445 110.773 273.535 110.705C274.613 110.638 275.546 111.458 275.613 112.548Z" fill="#263238"/>
<path d="M262.623 111.964C262.69 113.042 261.87 113.975 260.78 114.042C259.702 114.11 258.769 113.29 258.702 112.2C258.634 111.121 259.455 110.189 260.544 110.121C261.623 110.054 262.556 110.874 262.623 111.964Z" fill="#263238"/>
<path d="M258.028 108.155L261.725 105.638C261.725 105.638 260.163 104.2 258.747 105.211C257.343 106.222 258.028 108.155 258.028 108.155Z" fill="#263238"/>
<path d="M274.242 107.717L278.23 109.728C278.23 109.728 278.725 107.661 277.163 106.919C275.601 106.177 274.242 107.717 274.242 107.717Z" fill="#263238"/>
<path d="M267.376 126.952C267.376 126.952 271.118 127.065 273.59 124.874C273.59 124.874 274.23 128.177 271.477 128.975C268.736 129.784 267.376 126.952 267.376 126.952Z" fill="#F28F8F"/>
<path d="M292.151 113.188C292.151 113.188 289.634 118.402 288.095 118.222C286.556 118.042 288.095 98.2225 284.882 98.0877C281.668 97.9641 266.5 105.492 253.096 95.7731C247.95 92.0429 246.916 82.515 250.006 83.4138C253.096 84.3127 257.264 87.0205 262.905 86.6273C268.545 86.2452 288.23 77.0994 293.129 89.9755C293.129 89.9755 304.038 89.0879 299.937 110.728C298.915 116.099 295.702 129.435 291.971 130.75L292.162 113.177L292.151 113.188Z" fill="#263238"/>
<path d="M291.263 117.952C291.218 116.323 291.477 114.683 292.151 113.188C292.904 111.514 294.218 109.84 296.51 109.773C301.544 109.638 302.229 114.481 302.162 116.211C301.982 120.75 298.308 125.649 291.477 125.829L291.263 117.941V117.952Z" fill="#FFA8A7"/>
<path d="M289.702 215.085L276.848 225.265C276.848 225.265 272.781 225.658 270.331 226.399C267.871 227.141 261.421 229.512 259.714 229.882C258.006 230.253 260.208 233.186 264.68 232.118C264.68 232.118 255.309 238.534 255.433 241.399C255.556 244.253 265.174 249.129 271.668 244.343C272.972 243.377 275.309 241.5 277.196 240.871C279.084 240.253 284.612 238.107 287.904 233.253L299.14 227.399C299.14 227.399 302.308 214.152 289.702 215.085Z" fill="#FFA8A7"/>
<path d="M303.736 144.626C303.736 144.626 296.23 150.446 300.848 168.491C305.455 186.546 307.915 202.108 307.915 202.108L289.702 215.074C289.702 215.074 297.399 217.815 299.14 227.388C299.14 227.388 327.836 216.107 328.42 208.86C329.005 201.625 322.432 170.266 321.432 164.502C320.432 158.738 315.331 147.356 303.724 144.626H303.736Z" fill="#FFA8A7"/>
<path d="M307.914 202.119C307.914 202.119 311.611 201.333 314.779 202.186C314.779 202.186 311.97 200.445 307.757 200.445L307.914 202.119Z" fill="#F28F8F"/>
<path d="M181.502 183.861L188.064 226.849C188.064 226.849 188.086 226.905 188.109 226.916L253.343 264.747C253.411 264.792 253.501 264.724 253.489 264.646L247.119 222.961C246.849 221.164 245.793 219.579 244.242 218.624L184.401 181.928C183.008 181.075 181.244 182.243 181.491 183.861H181.502Z" fill="#FAFAFA"/>
<path d="M253.344 264.747L288.186 244.568C289.826 243.624 290.826 241.871 290.826 239.983L253.052 261.792L253.344 264.747Z" fill="#E0E0E0"/>
<path d="M219.254 225.287C219.254 228.354 217.097 229.602 214.445 228.062C211.793 226.523 209.636 222.793 209.636 219.725C209.636 216.658 211.793 215.411 214.445 216.95C217.108 218.489 219.254 222.22 219.254 225.287Z" fill="#E0E0E0"/>
<path d="M291.388 96.3124C291.388 96.3124 294.343 91.9417 292.545 90.526C290.747 89.1103 289.332 93.6159 291.388 96.3124Z" fill="#263238"/>
<path d="M290.882 97.2338C290.882 97.2338 296.129 96.5821 296.006 94.29C295.882 91.9979 291.568 93.8968 290.882 97.2338Z" fill="#263238"/>
<path d="M291.961 138.929C291.961 138.929 288.118 149.064 279.231 147.783C270.355 146.491 274.018 138.929 274.018 138.929H291.95H291.961Z" fill="#FFA8A7"/>
<path d="M303.735 144.626C303.735 144.626 297.893 147.424 298.791 159.176C299.69 170.929 304.331 194.614 304.331 194.614C304.331 194.614 325.252 203.074 327.24 191.142C327.757 188.052 322.476 159.48 317.971 153.435C313.465 147.39 308.375 145.457 303.735 144.626Z" fill="#EC6100"/>
<path opacity="0.2" d="M303.735 144.626C303.735 144.626 297.893 147.424 298.791 159.176C299.69 170.929 304.331 194.614 304.331 194.614C304.331 194.614 325.252 203.074 327.24 191.142C327.757 188.052 322.476 159.48 317.971 153.435C313.465 147.39 308.375 145.457 303.735 144.626Z" fill="black"/>
<path d="M241.422 349.981C241.422 349.981 240.119 352.037 238.007 352.363C236.737 352.565 239.31 349.273 236.243 347.947C233.187 346.633 226.187 344.801 225.558 347.442L224.782 350.722C224.052 353.823 222.569 356.7 220.468 359.093C218.367 361.486 215.648 364.34 213.547 365.7C209.547 368.284 202.985 374.52 211.412 379.823C219.85 385.126 230.22 380.654 232.243 374.61C234.276 368.565 236.423 366.823 237.501 365.823C238.58 364.823 241.108 363.25 242.063 359.172C242.681 356.531 243.029 353.138 243.209 351.082C243.299 349.958 242.771 348.891 241.816 348.284L241.422 349.958V349.981Z" fill="#455A64"/>
<path d="M211.423 379.834C219.861 385.137 230.232 380.666 232.254 374.621C234.288 368.576 236.434 366.834 237.513 365.834C238.479 364.936 240.603 363.565 241.715 360.363C241.704 360.531 241.681 360.7 241.67 360.857C241.344 366.082 238.142 367.306 237.063 368.318C235.985 369.318 234.209 370.98 232.176 377.014C230.142 383.059 219.446 386.823 211.019 381.508C206.929 378.935 206.367 376.138 207.334 373.654C207.176 375.677 208.221 377.823 211.412 379.834H211.423Z" fill="#263238"/>
<path d="M251.961 299.634L278.837 315.15L312.758 295.566L285.826 280.016C285.118 279.6 284.23 279.6 283.523 280.016L251.961 298.24C251.422 298.555 251.422 299.33 251.961 299.634Z" fill="#EC6100"/>
<path opacity="0.7" d="M251.961 299.634L278.837 315.15L312.758 295.566L285.826 280.016C285.118 279.6 284.23 279.6 283.523 280.016L251.961 298.24C251.422 298.555 251.422 299.33 251.961 299.634Z" fill="black"/>
<path d="M253.826 299.061L278.848 313.51L310.42 295.274L285.353 280.803C284.69 280.421 283.87 280.421 283.207 280.803L253.826 297.769C253.331 298.061 253.331 298.78 253.826 299.061Z" fill="white"/>
<path d="M278.836 313.51V310.69L253.443 296.027V298.431L278.836 313.51Z" fill="white"/>
<path d="M278.838 313.51V310.69L310.41 292.465V295.274L278.838 313.51Z" fill="#E0E0E0"/>
<path d="M251.961 295.173L278.837 310.69L312.758 291.106L285.826 275.556C285.118 275.14 284.23 275.14 283.523 275.556L251.961 293.78C251.422 294.094 251.422 294.87 251.961 295.173Z" fill="#EC6100"/>
<path opacity="0.5" d="M251.961 295.173L278.837 310.69L312.758 291.106L285.826 275.556C285.118 275.14 284.23 275.14 283.523 275.556L251.961 293.78C251.422 294.094 251.422 294.87 251.961 295.173Z" fill="black"/>
<path d="M282.342 313.128C282.511 313.195 282.691 313.184 282.848 313.094C283.05 312.982 283.174 312.791 283.174 312.555V310.004C283.174 308.836 282.545 307.735 281.545 307.139L281.444 307.083C281.309 307.004 281.185 307.049 281.14 307.083C281.095 307.105 280.983 307.184 280.983 307.341C280.983 307.634 280.747 307.869 280.455 307.869C280.163 307.869 279.927 307.634 279.927 307.341C279.927 306.847 280.185 306.409 280.612 306.162C281.039 305.914 281.556 305.926 281.972 306.162L282.073 306.218C283.399 307.004 284.219 308.454 284.219 309.993V312.544C284.219 313.161 283.882 313.723 283.342 314.015C283.095 314.15 282.826 314.218 282.556 314.218C282.23 314.218 281.915 314.128 281.635 313.937C281.533 313.869 281.466 313.757 281.432 313.645L282.342 313.117V313.128Z" fill="white"/>
<path d="M287.364 310.229C287.532 310.296 287.712 310.285 287.869 310.195C288.072 310.083 288.195 309.892 288.195 309.656V307.105C288.195 305.937 287.566 304.836 286.566 304.24L286.465 304.184C286.33 304.105 286.207 304.15 286.162 304.184C286.117 304.207 286.004 304.285 286.004 304.443C286.004 304.735 285.768 304.971 285.476 304.971C285.184 304.971 284.948 304.735 284.948 304.443C284.948 303.948 285.207 303.51 285.634 303.263C286.061 303.016 286.577 303.027 286.993 303.263L287.094 303.319C288.42 304.105 289.24 305.555 289.24 307.094V309.645C289.24 310.263 288.903 310.824 288.364 311.117C288.117 311.251 287.847 311.319 287.577 311.319C287.252 311.319 286.937 311.229 286.656 311.038C286.555 310.97 286.487 310.858 286.454 310.746L287.364 310.218V310.229Z" fill="white"/>
<path d="M292.387 307.33C292.556 307.398 292.736 307.386 292.893 307.296C293.095 307.184 293.219 306.993 293.219 306.757V304.207C293.219 303.038 292.59 301.937 291.59 301.342L291.488 301.285C291.354 301.207 291.23 301.252 291.185 301.285C291.14 301.308 291.028 301.386 291.028 301.544C291.028 301.836 290.792 302.072 290.5 302.072C290.208 302.072 289.972 301.836 289.972 301.544C289.972 301.049 290.23 300.611 290.657 300.364C291.084 300.117 291.601 300.128 292.017 300.364L292.118 300.42C293.443 301.207 294.264 302.656 294.264 304.195V306.746C294.264 307.364 293.927 307.926 293.387 308.218C293.14 308.353 292.87 308.42 292.601 308.42C292.275 308.42 291.96 308.33 291.679 308.139C291.578 308.072 291.511 307.959 291.477 307.847L292.387 307.319V307.33Z" fill="white"/>
<path d="M297.409 304.431C297.577 304.499 297.757 304.488 297.914 304.398C298.117 304.285 298.24 304.094 298.24 303.858V301.308C298.24 300.139 297.611 299.038 296.611 298.443L296.51 298.387C296.375 298.308 296.252 298.353 296.207 298.387C296.162 298.409 296.049 298.488 296.049 298.645C296.049 298.937 295.813 299.173 295.521 299.173C295.229 299.173 294.993 298.937 294.993 298.645C294.993 298.151 295.252 297.712 295.678 297.465C296.105 297.218 296.622 297.229 297.038 297.465L297.139 297.521C298.465 298.308 299.285 299.757 299.285 301.297V303.847C299.285 304.465 298.948 305.027 298.409 305.319C298.162 305.454 297.892 305.521 297.622 305.521C297.296 305.521 296.982 305.431 296.701 305.24C296.6 305.173 296.532 305.061 296.499 304.948L297.409 304.42V304.431Z" fill="white"/>
<path d="M302.432 301.533C302.601 301.6 302.781 301.589 302.938 301.499C303.14 301.386 303.264 301.195 303.264 300.959V298.409C303.264 297.24 302.634 296.139 301.634 295.544L301.533 295.488C301.399 295.409 301.275 295.454 301.23 295.488C301.185 295.51 301.073 295.589 301.073 295.746C301.073 296.038 300.837 296.274 300.545 296.274C300.252 296.274 300.017 296.038 300.017 295.746C300.017 295.252 300.275 294.814 300.702 294.566C301.129 294.319 301.646 294.33 302.061 294.566L302.163 294.623C303.488 295.409 304.309 296.858 304.309 298.398V300.948C304.309 301.566 303.972 302.128 303.432 302.42C303.185 302.555 302.915 302.622 302.646 302.622C302.32 302.622 302.005 302.532 301.724 302.341C301.623 302.274 301.556 302.162 301.522 302.049L302.432 301.521V301.533Z" fill="white"/>
<path d="M307.454 298.634C307.622 298.701 307.802 298.69 307.959 298.6C308.162 298.488 308.285 298.297 308.285 298.061V295.51C308.285 294.342 307.656 293.241 306.656 292.645L306.555 292.589C306.42 292.51 306.296 292.555 306.251 292.589C306.207 292.611 306.094 292.69 306.094 292.847C306.094 293.139 305.858 293.375 305.566 293.375C305.274 293.375 305.038 293.139 305.038 292.847C305.038 292.353 305.296 291.915 305.723 291.668C306.15 291.42 306.667 291.432 307.083 291.668L307.184 291.724C308.51 292.51 309.33 293.96 309.33 295.499V298.049C309.33 298.667 308.993 299.229 308.454 299.521C308.207 299.656 307.937 299.724 307.667 299.724C307.341 299.724 307.027 299.634 306.746 299.443C306.645 299.375 306.577 299.263 306.544 299.151L307.454 298.622V298.634Z" fill="white"/>
<path d="M248.49 288.162L277.557 304.937L315.365 283.106L286.31 266.32L248.49 288.162Z" fill="#E6E6E6"/>
<path d="M246.827 287.611L277.186 301.892L313.039 276.971L282.68 262.691L246.827 287.611Z" fill="#FAFAFA"/>
<path d="M314.611 242.995H339.273L337.06 269.095C336.925 270.488 335.959 271.859 334.116 272.915C330.161 275.196 323.746 275.196 319.78 272.915C317.937 271.848 316.971 270.488 316.836 269.095L314.622 242.995H314.611Z" fill="#EE2333"/>
<path d="M313.027 241.568V239.5H313.51C314.117 238.186 315.308 236.938 317.094 235.905C322.521 232.77 331.33 232.77 336.757 235.905C338.543 236.938 339.734 238.186 340.341 239.5H340.824V241.59C340.824 243.646 339.465 245.702 336.746 247.264C331.319 250.399 322.51 250.399 317.083 247.264C314.364 245.691 313.005 243.635 313.016 241.568H313.027Z" fill="#E0E0E0"/>
<path d="M317.105 245.298C322.532 248.433 331.341 248.433 336.768 245.298C342.195 242.163 342.195 237.073 336.768 233.939C331.341 230.804 322.532 230.804 317.105 233.939C311.678 237.073 311.678 242.163 317.105 245.298Z" fill="#EBEBEB"/>
<path d="M315.791 238.759V237.107H316.184C316.679 236.051 317.622 235.051 319.06 234.231C323.409 231.714 330.465 231.714 334.824 234.231C336.262 235.062 337.206 236.051 337.701 237.107H338.094V238.781C338.094 240.433 337.004 242.073 334.835 243.332C330.487 245.848 323.431 245.848 319.072 243.332C316.892 242.073 315.802 240.422 315.813 238.77L315.791 238.759Z" fill="#E0E0E0"/>
<path d="M319.061 241.747C323.409 244.264 330.465 244.264 334.825 241.747C339.173 239.231 339.173 235.163 334.825 232.646C330.477 230.13 323.421 230.13 319.061 232.646C314.713 235.163 314.713 239.231 319.061 241.747Z" fill="#F5F5F5"/>
<path d="M320.869 240.422C324.206 242.354 329.644 242.354 333.003 240.422C336.25 238.556 336.351 235.556 333.34 233.624C333.228 233.545 333.116 233.478 333.003 233.41C332.307 233.006 331.509 232.691 330.655 232.455C327.464 231.568 323.509 231.882 320.869 233.41C317.52 235.343 317.52 238.489 320.869 240.422Z" fill="#F0F0F0"/>
<path d="M333.005 234.41C329.657 232.478 324.218 232.478 320.87 234.41C319.41 235.253 318.589 236.321 318.398 237.41C318.151 235.983 318.971 234.5 320.87 233.41C324.218 231.478 329.657 231.478 333.005 233.41C334.904 234.5 335.724 235.983 335.477 237.41C335.286 236.309 334.465 235.242 333.005 234.41Z" fill="#E0E0E0"/>
<path d="M328.421 234.748L330.915 236.332L333.342 234.59V233.635C333.229 233.557 333.117 233.489 333.005 233.422C332.308 233.017 331.51 232.703 330.656 232.467V233.186L328.409 234.759L328.421 234.748Z" fill="#E0E0E0"/>
<path d="M35.5484 81.4251L175.41 0.674134C177.017 -0.247194 178.455 -0.179779 179.478 0.674134L184.32 4.02237L181.017 8.10093V120.885C181.017 125.02 178.5 129.817 175.41 131.604L36.9416 211.546L36.6832 215.95L31.5822 212.456C30.571 211.692 29.9418 210.186 29.9418 208.119V92.144C29.9418 88.0092 32.4586 83.2116 35.5484 81.4251Z" fill="#EC6100"/>
<path opacity="0.3" d="M35.5484 81.4251L175.41 0.674134C177.017 -0.247194 178.455 -0.179779 179.478 0.674134L184.32 4.02237L181.017 8.10093V120.885C181.017 125.02 178.5 129.817 175.41 131.604L36.9416 211.546L36.6832 215.95L31.5822 212.456C30.571 211.692 29.9418 210.186 29.9418 208.119V92.144C29.9418 88.0092 32.4586 83.2116 35.5484 81.4251Z" fill="black"/>
<path d="M40.3126 215.636L180.175 134.885C183.276 133.098 185.781 128.3 185.781 124.166V8.19081C185.781 4.05608 183.264 2.15724 180.175 3.94372L40.3126 84.6947C37.2116 86.4812 34.706 91.2788 34.706 95.4136V211.388C34.706 215.523 37.2228 217.422 40.3126 215.636Z" fill="#EC6100"/>
<path d="M40.3126 215.636L180.175 134.885C183.276 133.098 185.781 128.3 185.781 124.166V8.19081C185.781 4.05608 183.264 2.15724 180.175 3.94372L40.3126 84.6947C37.2116 86.4812 34.706 91.2788 34.706 95.4136V211.388C34.706 215.523 37.2228 217.422 40.3126 215.636Z" fill="#EC6100"/>
<path d="M40.3126 84.6947L180.175 3.94372C183.276 2.15724 185.781 4.05608 185.781 8.19081V13.8648L34.6948 101.099V95.4248C34.6948 91.2901 37.2115 86.4924 40.3014 84.7059L40.3126 84.6947Z" fill="#455A64"/>
<path d="M182.411 4.4044C181.917 4.4044 181.332 4.58417 180.748 4.93248L40.8861 85.6835C38.1446 87.2677 35.8413 91.7283 35.8413 95.4361V211.411C35.8413 213.714 36.7289 215.197 38.0997 215.197C38.6053 215.197 39.1671 215.018 39.7625 214.669L179.625 133.918C182.366 132.334 184.669 127.874 184.669 124.166V8.19083C184.669 5.88751 183.782 4.4044 182.411 4.4044ZM182.411 3.28083C184.4 3.28083 185.793 5.12348 185.793 8.19083V124.166C185.793 128.3 183.276 133.098 180.186 134.885L40.3243 215.636C39.5378 216.096 38.785 216.31 38.0997 216.31C36.1109 216.31 34.7177 214.467 34.7177 211.4V95.4248C34.7177 91.2901 37.2345 86.4924 40.3243 84.706L180.175 3.94373C180.962 3.48307 181.714 3.26959 182.4 3.26959L182.411 3.28083Z" fill="#C66A6A"/>
<path d="M120.952 64.6727C121.154 64.6727 121.356 64.6165 121.547 64.5154L174.782 33.7745C175.355 33.4487 175.546 32.7184 175.22 32.1453C174.895 31.5723 174.164 31.3813 173.591 31.7072L120.356 62.448C119.783 62.7739 119.592 63.5042 119.918 64.0772C120.143 64.4592 120.536 64.6727 120.952 64.6727Z" fill="white"/>
<path d="M114.802 155.995C114.6 156 114.399 156.061 114.21 156.167L75.3589 179.917C74.7942 180.257 74.6217 180.992 74.9619 181.556C75.302 182.121 76.0369 182.294 76.6015 181.953L115.453 158.204C116.018 157.864 116.19 157.129 115.85 156.564C115.616 156.188 115.217 155.985 114.802 155.995Z" fill="white"/>
<path d="M67.5273 184.902C67.3252 184.907 67.1244 184.968 66.936 185.074L51.1518 194.722C50.5872 195.062 50.4147 195.797 50.7548 196.362C51.095 196.926 51.8299 197.099 52.3945 196.759L68.1787 187.111C68.7433 186.771 68.9158 186.036 68.5757 185.471C68.3414 185.095 67.9429 184.892 67.5273 184.902Z" fill="white"/>
<path d="M120.952 139.244C121.154 139.244 121.356 139.188 121.547 139.087L174.782 108.346C175.355 108.02 175.546 107.29 175.22 106.717C174.895 106.144 174.164 105.953 173.591 106.279L120.356 137.019C119.783 137.345 119.592 138.076 119.918 138.649C120.143 139.031 120.536 139.244 120.952 139.244Z" fill="white"/>
<path d="M112.924 81.4473C112.722 81.4524 112.522 81.5137 112.333 81.6196L73.4819 105.38C72.9173 105.72 72.7447 106.455 73.0849 107.02C73.4251 107.585 74.1599 107.757 74.7246 107.417L113.576 83.6563C114.14 83.3161 114.313 82.5812 113.973 82.0166C113.739 81.6403 113.34 81.4368 112.924 81.4473Z" fill="white"/>
<path d="M65.6504 110.354C65.4482 110.359 65.2474 110.421 65.059 110.527L49.2749 120.174C48.7102 120.514 48.5377 121.249 48.8779 121.814C49.218 122.378 49.9529 122.551 50.5175 122.211L66.3017 112.563C66.8663 112.223 67.0389 111.488 66.6987 110.924C66.4644 110.547 66.066 110.344 65.6504 110.354Z" fill="white"/>
<path d="M120.952 156.772C121.154 156.772 121.356 156.716 121.547 156.614L174.782 125.874C175.355 125.548 175.546 124.817 175.22 124.244C174.895 123.671 174.164 123.48 173.591 123.806L120.356 154.547C119.783 154.873 119.592 155.603 119.918 156.176C120.143 156.558 120.536 156.772 120.952 156.772Z" fill="white"/>
<path d="M95.9465 74.03C95.7443 74.0351 95.5435 74.0964 95.3551 74.2023L73.0405 87.8469C72.4759 88.1871 72.3033 88.922 72.6435 89.4866C72.9837 90.0513 73.7185 90.2238 74.2832 89.8837L96.5978 76.239C97.1624 75.8988 97.335 75.1639 96.9948 74.5993C96.7606 74.2231 96.3621 74.0196 95.9465 74.03Z" fill="white"/>
<path d="M65.209 92.821C65.0068 92.8261 64.806 92.8873 64.6176 92.9932L48.8335 102.641C48.2688 102.981 48.0963 103.716 48.4365 104.28C48.7766 104.845 49.5115 105.018 50.0761 104.677L65.8603 95.0299C66.4249 94.6898 66.5975 93.9549 66.2573 93.3902C66.023 93.014 65.6246 92.8105 65.209 92.821Z" fill="white"/>
<path d="M147.502 58.6054C147.704 58.6054 147.906 58.5492 148.097 58.4481L174.782 43.044C175.355 42.7181 175.546 41.9878 175.22 41.4148C174.895 40.8418 174.164 40.6508 173.591 40.9766L146.906 56.3807C146.333 56.7066 146.142 57.4369 146.468 58.0099C146.693 58.3919 147.086 58.6054 147.502 58.6054Z" fill="white"/>
<path d="M90.3623 161.534C90.1601 161.539 89.9593 161.6 89.7709 161.706L50.9194 185.455C50.3548 185.795 50.1822 186.53 50.5224 187.095C50.8626 187.66 51.5974 187.832 52.1621 187.492L91.0136 163.742C91.5782 163.402 91.7508 162.667 91.4106 162.103C91.1763 161.727 90.7779 161.523 90.3623 161.534Z" fill="white"/>
<path d="M120.583 74.1556C120.785 74.1556 120.987 74.0995 121.178 73.9983L137.2 64.7514C137.773 64.4255 137.964 63.6952 137.638 63.1222C137.312 62.5492 136.582 62.3582 136.009 62.684L119.987 71.931C119.414 72.2568 119.223 72.9871 119.549 73.5602C119.774 73.9422 120.167 74.1556 120.583 74.1556Z" fill="white"/>
<path d="M120.952 83.2004C121.154 83.2004 121.356 83.1442 121.547 83.0431L174.782 52.3022C175.355 51.9764 175.546 51.246 175.22 50.673C174.895 50.1 174.164 49.909 173.591 50.2348L120.356 80.9757C119.783 81.3016 119.592 82.0319 119.918 82.6049C120.143 82.9869 120.536 83.2004 120.952 83.2004Z" fill="white"/>
<path d="M85.8327 154.893C85.6305 154.898 85.4297 154.959 85.2413 155.065L74.8921 161.395C74.3274 161.735 74.1549 162.47 74.4951 163.035C74.8352 163.599 75.5701 163.772 76.1347 163.432L86.484 157.102C87.0486 156.762 87.2212 156.027 86.881 155.462C86.6468 155.086 86.2482 154.882 85.8327 154.893Z" fill="white"/>
<path d="M142.255 80.178C142.458 80.178 142.66 80.1218 142.851 80.0207L153.356 73.9534C153.929 73.6276 154.12 72.8972 153.795 72.3242C153.469 71.7512 152.738 71.5602 152.165 71.886L141.66 77.9533C141.087 78.2791 140.896 79.0095 141.222 79.5825C141.447 79.9645 141.84 80.178 142.255 80.178Z" fill="white"/>
<path d="M67.0605 166.369C66.8584 166.374 66.6576 166.435 66.4692 166.541L50.685 176.189C50.1204 176.529 49.9479 177.264 50.288 177.828C50.6282 178.393 51.3631 178.566 51.9277 178.226L67.7119 168.578C68.2765 168.238 68.449 167.503 68.1089 166.938C67.8746 166.562 67.4761 166.359 67.0605 166.369Z" fill="white"/>
<path d="M157.131 71.5827C157.334 71.5827 157.536 71.5265 157.727 71.4254L174.794 61.5716C175.367 61.2458 175.558 60.5155 175.232 59.9425C174.906 59.3694 174.176 59.1784 173.603 59.5043L156.536 69.358C155.963 69.6838 155.772 70.4141 156.098 70.9872C156.322 71.3692 156.716 71.5827 157.131 71.5827Z" fill="white"/>
<path d="M120.583 92.6833C120.785 92.6833 120.987 92.6271 121.178 92.526L137.2 83.279C137.773 82.9532 137.964 82.2229 137.638 81.6498C137.312 81.0768 136.582 80.8858 136.009 81.2117L119.987 90.4586C119.414 90.7845 119.223 91.5148 119.549 92.0878C119.774 92.4698 120.167 92.6833 120.583 92.6833Z" fill="white"/>
<path d="M120.952 102.413C121.154 102.413 121.356 102.357 121.547 102.256L174.782 71.5152C175.355 71.1894 175.546 70.4591 175.22 69.8861C174.895 69.313 174.164 69.122 173.591 69.4479L120.356 100.189C119.783 100.515 119.592 101.245 119.918 101.818C120.143 102.2 120.536 102.413 120.952 102.413Z" fill="white"/>
<path d="M113.853 118.266C113.65 118.271 113.45 118.333 113.261 118.439L74.4096 142.188C73.845 142.528 73.6725 143.263 74.0126 143.828C74.3528 144.392 75.0877 144.565 75.6523 144.225L114.504 120.475C115.068 120.135 115.241 119.4 114.901 118.836C114.667 118.459 114.268 118.256 113.853 118.266Z" fill="white"/>
<path d="M66.5781 147.173C66.3759 147.178 66.1752 147.24 65.9868 147.346L50.2026 156.993C49.638 157.333 49.4654 158.068 49.8056 158.633C50.1458 159.197 50.8806 159.37 51.4453 159.03L67.2294 149.382C67.7941 149.042 67.9666 148.307 67.6264 147.743C67.3922 147.366 66.9937 147.163 66.5781 147.173Z" fill="white"/>
<path d="M147.502 96.3462C147.704 96.3462 147.906 96.29 148.097 96.1889L174.782 80.7847C175.355 80.4589 175.546 79.7285 175.22 79.1555C174.895 78.5825 174.164 78.3915 173.591 78.7173L146.906 94.1215C146.333 94.4473 146.142 95.1776 146.468 95.7507C146.693 96.1327 147.086 96.3462 147.502 96.3462Z" fill="white"/>
<path d="M89.4111 123.805C89.2089 123.81 89.0082 123.871 88.8198 123.977L49.9682 147.727C49.4036 148.067 49.2311 148.802 49.5712 149.366C49.9114 149.931 50.6463 150.103 51.2109 149.763L90.0624 126.014C90.6271 125.674 90.7996 124.939 90.4594 124.374C90.2252 123.998 89.8267 123.794 89.4111 123.805Z" fill="white"/>
<path d="M120.583 111.885C120.785 111.885 120.987 111.829 121.178 111.728L137.2 102.481C137.773 102.155 137.964 101.425 137.638 100.852C137.312 100.279 136.582 100.088 136.009 100.413L119.987 109.66C119.414 109.986 119.223 110.717 119.549 111.29C119.774 111.672 120.167 111.885 120.583 111.885Z" fill="white"/>
<path d="M120.952 120.941C121.154 120.941 121.356 120.885 121.547 120.784L174.782 90.0429C175.355 89.7171 175.546 88.9868 175.22 88.4137C174.895 87.8407 174.164 87.6497 173.591 87.9756L120.356 118.716C119.783 119.042 119.592 119.773 119.918 120.346C120.143 120.728 120.536 120.941 120.952 120.941Z" fill="white"/>
<path d="M84.8834 117.164C84.6813 117.169 84.4805 117.23 84.2921 117.336L73.9428 123.666C73.3782 124.006 73.2057 124.741 73.5458 125.306C73.886 125.871 74.6209 126.043 75.1855 125.703L85.5348 119.373C86.0994 119.033 86.272 118.298 85.9318 117.733C85.6975 117.357 85.299 117.154 84.8834 117.164Z" fill="white"/>
<path d="M142.255 117.907C142.458 117.907 142.66 117.851 142.851 117.75L153.356 111.683C153.929 111.357 154.12 110.627 153.795 110.054C153.469 109.481 152.738 109.29 152.165 109.616L141.66 115.683C141.087 116.009 140.896 116.739 141.222 117.312C141.447 117.694 141.84 117.907 142.255 117.907Z" fill="white"/>
<path d="M66.1113 128.651C65.9091 128.657 65.7084 128.718 65.52 128.824L49.7358 138.471C49.1712 138.811 48.9986 139.546 49.3388 140.111C49.679 140.676 50.4139 140.848 50.9785 140.508L66.7626 130.86C67.3273 130.52 67.4998 129.785 67.1596 129.221C66.9254 128.844 66.5269 128.641 66.1113 128.651Z" fill="white"/>
<path d="M157.131 109.323C157.334 109.323 157.536 109.267 157.727 109.166L174.794 99.3124C175.367 98.9865 175.558 98.2562 175.232 97.6832C174.906 97.1102 174.176 96.9192 173.603 97.245L156.536 107.099C155.963 107.425 155.772 108.155 156.098 108.728C156.322 109.11 156.716 109.323 157.131 109.323Z" fill="white"/>
<path d="M120.583 130.424C120.785 130.424 120.987 130.368 121.178 130.267L137.2 121.02C137.773 120.694 137.964 119.964 137.638 119.391C137.312 118.818 136.582 118.627 136.009 118.952L119.987 128.199C119.414 128.525 119.223 129.256 119.549 129.829C119.774 130.211 120.167 130.424 120.583 130.424Z" fill="white"/>
<path d="M142.255 135.671C142.458 135.671 142.66 135.615 142.851 135.514L153.356 129.447C153.929 129.121 154.12 128.39 153.795 127.817C153.469 127.244 152.738 127.053 152.165 127.379L141.66 133.446C141.087 133.772 140.896 134.503 141.222 135.076C141.447 135.458 141.84 135.671 142.255 135.671Z" fill="white"/>
<path d="M157.131 127.087C157.334 127.087 157.536 127.031 157.727 126.93L174.794 117.076C175.367 116.75 175.558 116.02 175.232 115.447C174.906 114.874 174.176 114.683 173.603 115.009L156.536 124.862C155.963 125.188 155.772 125.919 156.098 126.492C156.322 126.874 156.716 127.087 157.131 127.087Z" fill="white"/>
<path d="M120.583 148.188C120.785 148.188 120.987 148.132 121.178 148.03L137.2 138.783C137.773 138.458 137.964 137.727 137.638 137.154C137.312 136.581 136.582 136.39 136.009 136.716L119.987 145.963C119.414 146.289 119.223 147.019 119.549 147.592C119.774 147.974 120.167 148.188 120.583 148.188Z" fill="white"/>
<path d="M163.647 45.3248V88.4025C163.647 89.0991 163.906 89.5598 164.288 89.7058L165.939 90.6047V89.1328L166.164 44.8417L164.007 43.7518C163.771 44.2462 163.636 44.7968 163.636 45.3024L163.647 45.3248Z" fill="white"/>
<path d="M164.019 43.7743L166.176 44.8642L218.411 14.2469L219.658 13.5278L217.939 12.5615L217.894 12.5278C217.625 12.3593 217.265 12.3705 216.861 12.5952L165.199 42.3586C164.727 42.6283 164.3 43.1563 164.019 43.7743Z" fill="white"/>
<path d="M165.524 46.2686V89.0654C165.524 89.6609 165.715 90.0879 166.019 90.2901L166.12 90.3463C166.378 90.4699 166.715 90.4474 167.075 90.2339L218.422 60.6503C219.276 60.156 219.973 58.8414 219.973 57.6953V14.8985C219.973 14.3255 219.793 13.9098 219.512 13.6963C219.467 13.6626 219.411 13.6289 219.355 13.6064C219.096 13.4941 218.77 13.5278 218.422 13.73L167.075 43.3136C166.626 43.5721 166.21 44.0777 165.929 44.6507C165.682 45.1563 165.524 45.7293 165.524 46.2574V46.2686Z" fill="#455A64"/>
<path d="M179.051 69.3471L173.424 70.2565L172.696 68.9964L176.297 64.578L176.997 65.7896L173.712 69.7027L173.32 69.0241L178.351 68.1354L179.051 69.3471ZM180.46 71.1699L178.387 60.192L179.735 59.4141L181.808 70.392L180.46 71.1699ZM184.036 66.4692L183.336 65.2575L186.621 61.3445L187.013 62.0231L181.982 62.9118L181.282 61.7001L186.909 60.7907L187.637 62.0508L184.036 66.4692Z" fill="#FAFAFA"/>
<path d="M219.242 13.6626C219.096 13.6626 218.939 13.7076 218.77 13.8087L167.109 43.5721C166.715 43.7968 166.345 44.2462 166.075 44.7967C165.839 45.2911 165.704 45.8192 165.704 46.2911V89.3463C165.704 89.8182 165.839 90.189 166.052 90.3238L166.142 90.3688C166.21 90.4025 166.288 90.4137 166.367 90.4137C166.513 90.4137 166.67 90.3688 166.839 90.2676L218.501 60.5043C219.265 60.0661 219.916 58.8189 219.916 57.7852V14.73C219.916 14.2693 219.793 13.9098 219.568 13.7525C219.534 13.73 219.501 13.7076 219.467 13.6963C219.411 13.6739 219.332 13.6514 219.265 13.6514M219.265 13.3593C219.377 13.3593 219.478 13.3817 219.579 13.4267C219.635 13.4491 219.692 13.4828 219.737 13.5166C220.029 13.73 220.197 14.1458 220.197 14.73V57.7852C220.197 58.9313 219.501 60.2571 218.647 60.7514L166.985 90.5148C166.771 90.6384 166.558 90.7058 166.367 90.7058C166.243 90.7058 166.131 90.6834 166.019 90.6272L165.918 90.571C165.614 90.3688 165.423 89.9418 165.423 89.3351V46.2799C165.423 45.7405 165.581 45.1675 165.828 44.6619C166.109 44.0777 166.524 43.5833 166.974 43.3136L218.636 13.5503C218.86 13.4267 219.062 13.3593 219.253 13.3593H219.265Z" fill="#37474F"/>
<path d="M56.2902 82.5849C56.2902 83.8095 57.1554 84.3039 58.2115 83.6972C59.2677 83.0905 60.1328 81.5961 60.1328 80.3714C60.1328 79.1467 59.2677 78.6524 58.2115 79.2591C57.1554 79.8771 56.2902 81.3602 56.2902 82.5849Z" fill="white"/>
<path d="M49.1437 87.0005C49.1437 88.2252 50.0089 88.7195 51.065 88.1128C52.1212 87.4948 52.9863 86.0117 52.9863 84.787C52.9863 83.5624 52.1212 83.068 51.065 83.6747C50.0089 84.2927 49.1437 85.7758 49.1437 87.0005Z" fill="white"/>
<path d="M41.9992 91.4161C41.9992 92.6408 42.8643 93.1352 43.9205 92.5285C44.9767 91.9105 45.8418 90.4274 45.8418 89.2027C45.8418 87.978 44.9767 87.4836 43.9205 88.0904C42.8643 88.7083 41.9992 90.1914 41.9992 91.4161Z" fill="white"/>
</g>
<defs>
<clipPath id="clip0_1165_1269">
<rect width="500" height="499.393" fill="white" transform="matrix(-1 0 0 1 500 0)"/>
</clipPath>
</defs>
</svg>